<svg xmlns="http://www.w3.org/2000/svg" width="1920" height="1080" viewBox="0 0 1920 1080"><defs><style>.a{fill:#ff6b74;}.b{fill:#ff997f;}.c{fill:#fac;}</style></defs><path class="a" d="M-110.35,196.37C12.27-162,157-254.09,271.33-267.25,490.52-292.47,620-30.09,886.87-49.56c228-16.63,242.92-216.16,526-258.63,34.63-5.2,318.53-44,477,117,111.4,113.19,237.77,444.71,30.51,439.42L121.07,202.28Z"/><path class="a" d="M181.65,400.84C394.24,612.57,986.24,376.4,986.24,376.4l-26-182.71L184,173.89Z"/><path class="b" d="M-557.21,631.9C-406,228.12-229.42,123.55-90.28,108c266.75-29.88,422.73,264.24,747.39,240.5C934.5,328.16,953.83,103.71,1298.33,54c42.16-6.08,387.67-51.72,579.46,128.19,134.84,126.49,286.59,498.38,34.54,493.87Z"/><path class="c" d="M-228.12,1059.44c169-554.89,359.79-701,509-724.75,286.09-45.54,448,354,795.93,315.88,297.32-32.59,321.92-339.91,691.6-413.93,45.24-9.06,415.94-77.5,618.12,165.22,142.14,170.64,298.12,676.63,28.36,674.86Z"/><path class="a" d="M-111.15,1274.25c122.62-302,267.34-379.56,381.68-390.64,219.19-21.26,348.7,199.82,615.54,183.42,228-14,242.92-182.14,526-217.93,34.64-4.37,318.53-37.09,477,98.55,111.41,95.37,237.77,374.71,30.51,370.25Z"/></svg>