<svg xmlns="http://www.w3.org/2000/svg" width="26.67in" height="15in" viewBox="0 0 1920 1080"><defs><style>.a{fill:#ff6b74;}.b{fill:#ff997f;}.c{fill:#fac;}</style></defs><path class="a" d="M-110.3,196.4C12.3-162,157-254.1,271.3-267.2,490.5-292.5,620-30.1,886.9-49.6c228-16.6,242.9-216.2,526-258.6,34.6-5.2,318.5-44,477,117,111.4,113.2,237.8,444.7,30.5,439.4l-1799.3-46Z"/><path class="a" d="M181.9,430.8c212.6,211.7,804.6-24.4,804.6-24.4l-26-182.7L184.3,203.9Z"/><path class="b" d="M-557.2,644.79C-406,232.13-229.4,125.34-90.3,109.39c266.8-30.55,422.7,270,747.4,245.78,277.4-20.74,296.7-250.17,641.2-301,42.2-6.23,387.7-52.83,579.5,131C2012.6,314.5,2164.4,694.56,1912.3,690Z"/><path class="c" d="M-228.1,1075.4c169-565.4,359.8-714.3,509-738.5,286.1-46.4,448,360.7,795.9,321.9,297.3-33.2,321.9-346.4,691.6-421.8,45.2-9.2,415.9-79,618.1,168.4,142.1,173.9,298.1,689.5,28.4,687.7Z"/><path class="a" d="M-111.2,1274.2c122.6-302,267.3-379.6,381.7-390.6C489.7,862.3,619.2,1083.4,886,1067c228-14,242.9-182.1,526-217.9,34.6-4.4,318.5-37.1,477,98.5,111.4,95.4,237.8,374.7,30.5,370.2Z"/></svg>