<?xml version="1.0" encoding="UTF-8" standalone="no"?>
<svg
   xmlns:dc="http://purl.org/dc/elements/1.1/"
   xmlns:cc="http://creativecommons.org/ns#"
   xmlns:rdf="http://www.w3.org/1999/02/22-rdf-syntax-ns#"
   xmlns:svg="http://www.w3.org/2000/svg"
   xmlns="http://www.w3.org/2000/svg"
   xmlns:sodipodi="http://sodipodi.sourceforge.net/DTD/sodipodi-0.dtd"
   xmlns:inkscape="http://www.inkscape.org/namespaces/inkscape"
   inkscape:version="1.0 (4035a4f, 2020-05-01)"
   sodipodi:docname="Newfrontpage.svg"
   id="svg1085"
   viewBox="0 0 210 297"
   version="1.1"
   height="297mm"
   width="210mm">
  <defs
     id="defs1089" />
  <sodipodi:namedview
     inkscape:current-layer="svg1085"
     inkscape:window-maximized="0"
     inkscape:window-y="23"
     inkscape:window-x="0"
     inkscape:cy="433.07652"
     inkscape:cx="248.52397"
     inkscape:zoom="0.54609287"
     showgrid="false"
     id="namedview1087"
     inkscape:window-height="631"
     inkscape:window-width="1203"
     inkscape:pageshadow="2"
     inkscape:pageopacity="0"
     guidetolerance="10"
     gridtolerance="10"
     objecttolerance="10"
     borderopacity="1"
     bordercolor="#666666"
     pagecolor="#ffffff"
     inkscape:document-rotation="0" />
  <metadata
     id="metadata1043">
    <rdf:RDF>
      <cc:Work
         rdf:about="">
        <dc:format>image/svg+xml</dc:format>
        <dc:type
           rdf:resource="http://purl.org/dc/dcmitype/StillImage" />
        <dc:title />
      </cc:Work>
    </rdf:RDF>
  </metadata>
  <g
     id="g1049">
    <rect
       id="rect1045"
       opacity=".97"
       fill="#333"
       ry="23.229"
       height="209.26"
       width="285.53"
       y="186.28"
       x="-31.291" />
    <rect
       id="rect1047"
       opacity=".97"
       fill="#ffd166"
       ry="21.926"
       height="197.52"
       width="285.53"
       y="-56.745"
       x="-30.873" />
  </g>
  <g
     id="g1067"
     fill="#fff">
    <g
       id="g1057"
       transform="translate(6.8449 -103.65)">
      <circle
         id="circle1051"
         opacity=".59486"
         r="36.913"
         cy="349.33"
         cx="103.41" />
      <circle
         id="circle1053"
         opacity=".59486"
         r="27.135"
         cy="349.33"
         cx="103.41" />
      <circle
         id="circle1055"
         opacity=".59486"
         r="17.357"
         cy="349.33"
         cx="103.41" />
    </g>
    <g
       id="g1065"
       transform="translate(8.4848 -307.32)">
      <circle
         id="circle1059"
         opacity=".59486"
         r="36.913"
         cy="349.33"
         cx="103.41" />
      <circle
         id="circle1061"
         opacity=".59486"
         r="27.135"
         cy="349.33"
         cx="103.41" />
      <circle
         id="circle1063"
         opacity=".59486"
         r="17.357"
         cy="349.33"
         cx="103.41" />
    </g>
  </g>
  <g
     id="g1083"
     opacity=".996">
    <path
       id="path1069"
       opacity=".97"
       fill="#fac"
       d="m-32.364 215.73c11.077 8.1135 23.081 14.96 35.704 20.363 5.67 2.4269 11.496 4.5724 17.552 5.7412 6.0558 1.1688 12.373 1.3362 18.355-0.16556 6.9075-1.7342 13.056-5.5848 19.284-9.0379s12.914-6.6228 20.035-6.7729c4.4715-0.0943 8.9076 1.0228 13.032 2.7538 4.1239 1.731 7.9649 4.0661 11.717 6.5004 7.504 4.8687 14.989 10.289 23.736 12.16 5.6112 1.2002 11.476 0.85404 17.077-0.39074 5.6015-1.2448 10.97-3.3672 16.205-5.7174 10.47-4.7003 20.738-10.417 32.085-12.137 9.0047-1.3644 18.21-0.11784 27.102 1.8535s17.624 4.6661 26.592 6.2526c5.8238 1.0302 11.951 1.5661 17.545-0.35178 2.7973-0.95892 5.4104-2.54 7.3827-4.7434 1.9722-2.2034 3.2738-5.048 3.4151-8.0018 0.11757-2.4575-0.56124-4.9142-1.7074-7.0913-1.1462-2.177-2.7461-4.0897-4.5171-5.7976-3.5419-3.4159-7.7763-6.0512-11.309-9.4767-8.0551-7.8112-11.849-19.293-12.048-30.512-0.19853-11.219 2.8928-22.257 6.9662-32.712 4.0734-10.455 9.1448-20.501 13.17-30.974 4.0249-10.474 7.0151-21.551 6.6604-32.766-0.20209-6.3905-1.5326-12.836-4.6398-18.424-3.1073-5.5879-8.1058-10.261-14.186-12.237-4.0664-1.3216-8.4691-1.4094-12.683-0.68738-4.2144 0.72198-8.2599 2.2301-12.134 4.0388-7.7487 3.6174-14.949 8.4742-23.065 11.169-10.046 3.3358-21.022 3.1535-31.362 0.88865s-20.133-6.532-29.602-11.264c-8.482-4.2384-16.853-8.9046-25.993-11.431-4.5697-1.263-9.3166-1.9759-14.053-1.7763-4.7368 0.19953-9.4679 1.3316-13.635 3.5925-6.1912 3.359-10.793 8.9586-15.39 14.296-4.5968 5.337-9.5806 10.711-16.114 13.344-5.8142 2.3428-12.385 2.2719-18.494 0.86319s-11.842-4.0842-17.459-6.8682-11.198-5.7074-17.153-7.6645c-5.9552-1.9571-12.377-2.917-18.519-1.6635-4.9927 1.019-9.6376 3.4806-13.523 6.7771-3.8856 3.2965-7.0321 7.4095-9.5191 11.857-4.974 8.8949-7.3051 18.982-9.6259 28.906-3.8473 16.451-7.8407 32.971-8.8896 49.833-1.0489 16.862 1.0033 34.274 8.6924 49.317 3.4307 6.7119 7.9452 12.868 13.315 18.158z" />
    <path
       id="path1071"
       fill="#ff997f"
       d="m-40.896 76.829c11.927 3.775 25.287 2.8007 36.54-2.665 6.4768-3.1457 12.174-7.6547 17.927-11.984 5.7533-4.3294 11.711-8.564 18.473-11.038 8.3165-3.0425 17.486-3.2495 26.204-1.6959s17.048 4.8019 25.083 8.526c16.069 7.4481 31.641 17.009 49.176 19.502 15.308 2.176 30.799-1.2456 45.867-4.7131s30.504-7.0246 45.848-5.1179c11.404 1.4172 22.456 5.9296 31.372 13.18 9.3098 7.5708 16.151 18.006 19.949 29.389 3.7976 11.383 4.6062 23.677 2.926 35.558-3.3604 23.763-16.43 45.295-32.873 62.776-5.2524 5.5838-10.898 10.849-17.264 15.119s-13.49 7.5338-21.037 8.8738c-12.645 2.245-25.582-0.98215-37.846-4.7929s-24.581-8.2746-37.42-8.5677c-14.734-0.33634-29.336 4.8642-43.991 3.3016-8.2667-0.88146-16.135-3.8794-23.972-6.6543s-15.906-5.3791-24.219-5.4197c-12.799-0.0625-24.726 5.8919-36.849 9.9983-6.0613 2.0532-12.339 3.6732-18.737 3.8322-6.3977 0.15903-12.961-1.2273-18.284-4.7802-5.0343-3.3604-8.6959-8.4614-11.348-13.902s-4.3866-11.272-6.3062-17.012c-4.7223-14.121-10.638-27.887-14-42.393-3.3616-14.506-4.0128-30.158 1.6772-43.918 4.4623-10.791 12.783-19.939 23.103-25.402z" />
    <path
       id="path1073"
       fill="#ff6b74"
       d="m-51.367 110.87c9.9874-7.6995 22.236-12.429 34.806-13.439 14.988-1.205 30.25 2.7401 45.004-0.15621 8.52-1.6724 16.42-5.549 24.261-9.2772 7.8415-3.7282 15.88-7.3893 24.481-8.579 12.886-1.7824 25.836 2.1206 38.079 6.5165s24.575 9.3944 37.574 9.9095c13.443 0.53275 26.547-3.7715 39.36-7.8725s26.075-8.096 39.477-6.923c7.8632 0.68819 15.582 3.1915 22.263 7.3946 6.6811 4.2032 12.304 10.113 16.021 17.076 5.3775 10.073 6.5992 21.75 8.5795 32.996 2.1723 12.336 5.3794 24.649 4.9402 37.167-0.2196 6.259-1.376 12.536-3.9349 18.252-2.5589 5.7162-6.5723 10.856-11.822 14.271-5.9214 3.8509-13.138 5.3493-20.202 5.3343-7.0635-0.015-14.042-1.4581-20.914-3.0943-17.392-4.1413-34.486-9.5629-52.052-12.891-17.566-3.328-35.872-4.5083-53.209-0.1459-14.148 3.5599-27.101 10.652-40.299 16.87-11.961 5.635-24.429 10.645-37.561 12.187-13.132 1.5414-27.116-0.69307-37.816-8.4611-7.7625-5.6357-13.381-13.808-21.055-19.563-10.04-7.5286-23.245-10.392-35.661-8.5746-1.4577 0.2134-2.9249 0.48855-4.3935 0.37232-1.8228-0.14426-3.5789-0.90314-4.9898-2.0662s-2.4801-2.719-3.143-4.4231c-1.3258-3.4082-1.0063-7.2953 0.24597-10.731s3.3741-6.4846 5.6441-9.3517 4.7165-5.604 6.7496-8.6437c4.347-6.4991 6.681-14.325 6.6042-22.143-0.07682-7.8184-2.5641-15.597-7.038-22.009z" />
    <g
       id="g1081"
       fill="#fff" />
  </g>
</svg>
